<?xml version="1.0" encoding="UTF-8"?> <svg xmlns="http://www.w3.org/2000/svg" width="175" height="32" viewBox="0 0 175 32" fill="none"><g clip-path="url(#clip0_8679_25095)"><path d="M23.1487 12.0451L11.1035 0L7.48291 3.62062L17.6665 13.8066V17.9689L7.48291 28.1549L11.328 32L23.1487 20.1793V12.0451Z" fill="black"></path><path d="M3.90857 24.5807L7.48283 28.1549V21.0089L3.90857 24.5807Z" fill="black"></path><path d="M7.48283 3.62061L3.90857 7.19487L7.48283 10.7667V3.62061Z" fill="black"></path><path d="M0.0268374 11.0766L0 20.6722L3.90851 24.5807V7.19489L0.0268374 11.0766Z" fill="black"></path><path d="M11.8744 16.6172V15.1607L7.48035 10.7667V21.0088L11.8744 16.6172Z" fill="black"></path><path d="M35.9866 18.4031H40.8613L42.8741 16.3562V15.6486L40.8613 13.6017H35.9866V18.4056V18.4031ZM41.9592 11.7426L44.9089 14.9948V17.0051L41.9592 20.2573H33.7103V11.7426H41.9592Z" fill="black"></path><path d="M57.1003 11.7426V13.5992H49.2491V15.2314H56.8294V16.566H49.2491V18.4031H57.1003V20.2573H46.9728V11.7426H57.1003Z" fill="black"></path><path d="M63.5707 17.2881H67.9428L65.7568 14.358L63.5707 17.2881ZM66.1886 11.7426L72.776 20.2573H70.2435L69.131 18.7618H62.3874L61.2749 20.2573H58.7424L65.3298 11.7426H66.191H66.1886Z" fill="black"></path><path d="M77.114 11.7426V18.4031H84.9676V20.2573H74.8401V11.7426H77.114Z" fill="black"></path><path d="M97.2223 11.7426V13.5992H89.3711V15.2314H96.9515V16.566H89.3711V18.4031H97.2223V20.2573H87.0948V11.7426H97.2223Z" fill="black"></path><path d="M101.816 15.5071H108.138C108.677 15.5071 109.092 15.0923 109.092 14.5531C109.092 14.0139 108.677 13.5992 108.138 13.5992H101.816V15.5095V15.5071ZM108.555 11.7425C110.143 11.7425 111.366 12.9673 111.366 14.5531C111.366 15.9047 110.468 16.9929 109.221 17.2612L111.366 20.2573H109.092L107.023 17.3637H101.816V20.2573H99.5402V11.7425H108.555Z" fill="black"></path><path d="M126.143 11.7426V12.6282H118.441C117.614 12.6282 116.977 13.265 116.977 14.092C116.977 14.9191 117.614 15.5559 118.441 15.5559H124.106C125.436 15.5559 126.458 16.5806 126.458 17.9054C126.458 19.2302 125.436 20.2549 124.106 20.2549H115.952V19.3693H123.909C124.736 19.3693 125.372 18.7325 125.372 17.9054C125.372 17.0783 124.736 16.4415 123.909 16.4415H118.243C116.914 16.4415 115.891 15.4168 115.891 14.0896C115.891 12.7624 116.914 11.7401 118.243 11.7401H126.146L126.143 11.7426Z" fill="black"></path><path d="M130.362 16.078H137.191C138.164 16.078 138.916 15.3266 138.916 14.3531C138.916 13.3796 138.167 12.6282 137.191 12.6282H130.362V16.078ZM137.388 11.7426C138.864 11.7426 139.999 12.8795 139.999 14.3531C139.999 15.8267 138.864 16.9637 137.388 16.9637H130.362V20.2598H129.276V11.7426H137.388Z" fill="black"></path><path d="M142.868 17.3003H148.975L145.92 12.999L142.866 17.3003H142.868ZM146.137 11.7426L152.344 20.2598H151.134L149.548 18.025H142.297L140.714 20.2598H139.504L145.708 11.7426H146.137Z" fill="black"></path><path d="M163.169 11.7426V12.6282H157.216C155.311 12.6282 153.844 14.0969 153.844 15.9999C153.844 17.903 155.311 19.3717 157.216 19.3717H163.169V20.2573H157.019C154.613 20.2573 152.761 18.4031 152.761 15.9999C152.761 13.5968 154.613 11.7426 157.019 11.7426H163.169Z" fill="black"></path><path d="M174.885 11.7426V12.6282H166.78V15.4339H174.526V16.0975H166.78V19.3717H174.885V20.2573H165.694V11.7426H174.885Z" fill="black"></path></g><defs><clipPath id="clip0_8679_25095"><rect width="174.885" height="32" fill="white"></rect></clipPath></defs></svg> 